<svg width="21" height="20" viewBox="0 0 21 20" fill="none" xmlns="http://www.w3.org/2000/svg">
<path fill-rule="evenodd" clip-rule="evenodd" d="M15.6521 7.42857C15.6521 3.32588 12.3262 0 8.22349 0C4.12081 0 0.794922 3.32588 0.794922 7.42857C0.794922 11.5313 4.12081 14.8571 8.22349 14.8571C10.0635 14.8571 11.7549 14.1829 13.0578 13.0743L13.3664 13.3829V14.2857L19.0806 20L20.7949 18.2857L15.0806 12.5714H14.1778L13.8692 12.2629C14.9778 10.96 15.6521 9.26857 15.6521 7.42857ZM3.08064 7.42857C3.08064 4.57143 5.36635 2.28571 8.22349 2.28571C11.0806 2.28571 13.3664 4.57143 13.3664 7.42857C13.3664 10.2857 11.0806 12.5714 8.22349 12.5714C5.36635 12.5714 3.08064 10.2857 3.08064 7.42857Z" fill="white"/>
</svg>
