<svg width="16" height="16" viewBox="0 0 16 16" fill="none" xmlns="http://www.w3.org/2000/svg">
<path fill-rule="evenodd" clip-rule="evenodd" d="M8 7.33333C6.81828 7.33333 5.76562 7.37637 4.90558 7.43104C4.08981 7.4829 3.46253 8.10532 3.40398 8.91533C3.36233 9.49155 3.33333 10.0987 3.33333 10.6667C3.33333 11.2346 3.36233 11.8418 3.40398 12.418C3.46253 13.228 4.08981 13.8504 4.90559 13.9023C5.76562 13.957 6.81828 14 8 14C9.18172 14 10.2344 13.957 11.0944 13.9023C11.9102 13.8504 12.5375 13.228 12.596 12.418C12.6377 11.8418 12.6667 11.2346 12.6667 10.6667C12.6667 10.0987 12.6377 9.49155 12.596 8.91533C12.5375 8.10532 11.9102 7.4829 11.0944 7.43104C10.2344 7.37637 9.18172 7.33333 8 7.33333ZM4.821 6.10039C3.34251 6.19437 2.18092 7.34158 2.07412 8.81921C2.03101 9.41559 2 10.0566 2 10.6667C2 11.2767 2.03101 11.9177 2.07412 12.5141C2.18092 13.9918 3.34251 15.139 4.821 15.2329C5.70519 15.2891 6.78631 15.3333 8 15.3333C9.2137 15.3333 10.2948 15.2891 11.179 15.2329C12.6575 15.139 13.8191 13.9918 13.9259 12.5141C13.969 11.9177 14 11.2767 14 10.6667C14 10.0566 13.969 9.41559 13.9259 8.81921C13.8191 7.34158 12.6575 6.19437 11.179 6.10039C10.2948 6.04419 9.21369 6 8 6C6.78631 6 5.70519 6.04419 4.821 6.10039Z" fill="#777E91"/>
<path fill-rule="evenodd" clip-rule="evenodd" d="M8.66666 11.1548C9.06519 10.9243 9.33332 10.4934 9.33332 9.99984C9.33332 9.26346 8.73637 8.6665 7.99999 8.6665C7.26361 8.6665 6.66666 9.26346 6.66666 9.99984C6.66666 10.4934 6.93479 10.9243 7.33332 11.1548V11.9998C7.33332 12.368 7.6318 12.6665 7.99999 12.6665C8.36818 12.6665 8.66666 12.368 8.66666 11.9998V11.1548Z" fill="#777E91"/>
<path fill-rule="evenodd" clip-rule="evenodd" d="M4.66666 3.99984C4.66666 2.15889 6.15904 0.666504 7.99999 0.666504C9.84094 0.666504 11.3333 2.15889 11.3333 3.99984V6.6665C11.3333 7.03469 11.0348 7.33317 10.6667 7.33317C10.2985 7.33317 9.99999 7.03469 9.99999 6.6665V3.99984C9.99999 2.89527 9.10456 1.99984 7.99999 1.99984C6.89542 1.99984 5.99999 2.89527 5.99999 3.99984V6.6665C5.99999 7.03469 5.70151 7.33317 5.33332 7.33317C4.96513 7.33317 4.66666 7.03469 4.66666 6.6665V3.99984Z" fill="#777E91"/>
</svg>
