<svg width="20" height="20" viewBox="0 0 20 20" fill="none" xmlns="http://www.w3.org/2000/svg">
<path fill-rule="evenodd" clip-rule="evenodd" d="M2 10C2 5.58172 5.58172 2 10 2C14.4183 2 18 5.58172 18 10C18 14.4183 14.4183 18 10 18C5.58172 18 2 14.4183 2 10ZM10 0C4.47715 0 0 4.47715 0 10C0 15.5228 4.47715 20 10 20C15.5228 20 20 15.5228 20 10C20 4.47715 15.5228 0 10 0ZM13.028 15.2352C13.1579 15.772 13.6984 16.1018 14.2352 15.972C14.772 15.8421 15.1018 15.3016 14.972 14.7648C14.709 13.6783 14.0642 12.7209 13.1589 12.042C12.2547 11.3638 11.1408 11 10 11C8.85924 11 7.74527 11.3638 6.84106 12.042C5.9358 12.7209 5.29096 13.6783 5.02805 14.7648C4.89816 15.3016 5.22802 15.8421 5.76481 15.972C6.30161 16.1018 6.84206 15.772 6.97195 15.2352C7.12138 14.6176 7.49278 14.0532 8.04106 13.642C8.59039 13.23 9.281 13 10 13C10.719 13 11.4096 13.23 11.9589 13.642C12.5072 14.0532 12.8786 14.6176 13.028 15.2352ZM5.82144 6.01607C6.36485 5.91745 6.88531 6.27803 6.98393 6.82144C6.98831 6.8456 6.99384 6.8674 7 6.88692C7.00616 6.8674 7.01169 6.8456 7.01607 6.82144C7.11469 6.27803 7.63515 5.91745 8.17856 6.01607C8.72197 6.11469 9.08255 6.63515 8.98393 7.17856C8.90071 7.63714 8.68986 8.08344 8.34684 8.42646C7.99928 8.77402 7.52684 9 7 9C6.47317 9 6.00072 8.77402 5.65316 8.42646C5.31014 8.08344 5.09929 7.63714 5.01607 7.17856C4.91745 6.63515 5.27803 6.11469 5.82144 6.01607ZM12.9839 6.82144C12.8853 6.27803 12.3648 5.91745 11.8214 6.01607C11.278 6.11469 10.9175 6.63515 11.0161 7.17856C11.0993 7.63714 11.3101 8.08344 11.6532 8.42646C12.0007 8.77402 12.4732 9 13 9C13.5268 9 13.9993 8.77402 14.3468 8.42646C14.6899 8.08344 14.9007 7.63714 14.9839 7.17856C15.0825 6.63515 14.722 6.11469 14.1786 6.01607C13.6352 5.91745 13.1147 6.27803 13.0161 6.82144C13.0117 6.8456 13.0062 6.8674 13 6.88692C12.9938 6.8674 12.9883 6.8456 12.9839 6.82144Z" fill="#777E91"/>
</svg>
